<svg width="25" height="25" viewBox="0 0 25 25" fill="none" xmlns="http://www.w3.org/2000/svg">
<path d="M18.0399 0.0804205C19.3082 0.138305 20.185 0.324673 20.9963 0.640013C21.8081 0.955483 22.4228 1.35539 23.0338 1.96633C23.6446 2.57724 24.0445 3.1919 24.3601 4.00377C24.6754 4.81525 24.8617 5.69186 24.9196 6.96013C24.9913 8.53303 25 9.08745 25 12.5C25 15.9126 24.9913 16.467 24.9196 18.0399C24.8617 19.3081 24.6754 20.1847 24.36 20.9965C24.0444 21.8081 23.6445 22.4229 23.0338 23.0336C22.4229 23.6446 21.8081 24.0445 20.9962 24.36C20.1846 24.6754 19.3081 24.8617 18.0399 24.9195C16.4674 24.9913 15.9131 25 12.5 25C9.08691 25 8.53262 24.9913 6.96013 24.9195C5.69194 24.8617 4.81532 24.6754 4.00357 24.36C3.19184 24.0445 2.57708 23.6445 1.96628 23.0337C1.35539 22.4228 0.955437 21.808 0.639915 20.9962C0.324628 20.1848 0.138302 19.3081 0.0804207 18.0399C0.00870098 16.468 0 15.914 0 12.5C0 9.08597 0.00870101 8.53199 0.0804216 6.96006C0.138302 5.69186 0.324628 4.81525 0.639961 4.00365C0.955407 3.19198 1.35535 2.57725 1.96622 1.96638C2.57708 1.35546 3.19184 0.95552 4.0036 0.640016C4.81496 0.324684 5.69176 0.138306 6.96004 0.0804204C8.53203 0.00870023 9.08596 0 12.5 0C15.914 0 16.468 0.00870037 18.0399 0.0804205ZM12.5 2.77778C9.12458 2.77778 8.60834 2.78589 7.08667 2.85531C6.12099 2.89939 5.54117 3.02263 5.00987 3.22912C4.55623 3.40544 4.26797 3.59296 3.93046 3.93051C3.59288 4.26809 3.40535 4.55634 3.22913 5.00976C3.0226 5.54131 2.89938 6.12102 2.85531 7.08668C2.78589 8.6083 2.77778 9.12459 2.77778 12.5C2.77778 15.8754 2.78589 16.3917 2.85531 17.9133C2.89938 18.879 3.0226 19.4587 3.22907 19.9901C3.40536 20.4436 3.59292 20.7319 3.93052 21.0695C4.26797 21.407 4.55623 21.5946 5.00971 21.7708C5.54137 21.9774 6.12105 22.1006 7.08671 22.1446C8.60896 22.2141 9.12553 22.2222 12.5 22.2222C15.8745 22.2222 16.391 22.2141 17.9133 22.1446C18.8789 22.1006 19.4585 21.9774 19.9901 21.7709C20.4438 21.5946 20.732 21.407 21.0695 21.0695C21.407 20.732 21.5946 20.4437 21.7709 19.9902C21.9774 19.4587 22.1006 18.879 22.1447 17.9133C22.2141 16.3907 22.2222 15.874 22.2222 12.5C22.2222 9.12603 22.2141 8.60931 22.1447 7.0867C22.1006 6.12102 21.9774 5.54131 21.771 5.00998C21.5946 4.55629 21.4071 4.26801 21.0695 3.93046C20.732 3.59297 20.4438 3.40545 19.9901 3.22913C19.4587 3.02262 18.879 2.89939 17.9133 2.85531C16.3917 2.78589 15.8754 2.77778 12.5 2.77778ZM12.5 18.9815C8.92038 18.9815 6.01852 16.0796 6.01852 12.5C6.01852 8.92038 8.92038 6.01852 12.5 6.01852C16.0796 6.01852 18.9815 8.92038 18.9815 12.5C18.9815 16.0796 16.0796 18.9815 12.5 18.9815ZM12.5 16.2037C14.5455 16.2037 16.2037 14.5455 16.2037 12.5C16.2037 10.4545 14.5455 8.7963 12.5 8.7963C10.4545 8.7963 8.7963 10.4545 8.7963 12.5C8.7963 14.5455 10.4545 16.2037 12.5 16.2037ZM18.9815 7.40741C18.2144 7.40741 17.5926 6.78558 17.5926 6.01852C17.5926 5.25146 18.2144 4.62963 18.9815 4.62963C19.7485 4.62963 20.3704 5.25146 20.3704 6.01852C20.3704 6.78558 19.7485 7.40741 18.9815 7.40741Z" fill="#959595"/>
</svg>
