<svg width="1138" height="543" viewBox="0 0 1138 543" fill="none" xmlns="http://www.w3.org/2000/svg">
<path d="M509.301 437.302H505.597V431.501C505.597 430.117 505.572 428.336 503.67 428.336C501.741 428.336 501.446 429.844 501.446 431.4V437.301H497.742V425.372H501.298V427.002H501.348C501.703 426.394 502.218 425.893 502.836 425.554C503.453 425.214 504.152 425.049 504.856 425.075C508.61 425.075 509.303 427.545 509.303 430.757L509.301 437.302ZM493.562 423.741C493.137 423.741 492.721 423.615 492.368 423.379C492.014 423.143 491.739 422.807 491.576 422.414C491.413 422.022 491.37 421.589 491.453 421.172C491.536 420.755 491.741 420.372 492.041 420.072C492.342 419.771 492.725 419.566 493.142 419.483C493.559 419.4 493.991 419.443 494.384 419.605C494.777 419.768 495.113 420.043 495.349 420.397C495.585 420.75 495.711 421.166 495.711 421.591C495.711 421.873 495.656 422.153 495.548 422.414C495.44 422.675 495.282 422.912 495.082 423.111C494.882 423.311 494.645 423.469 494.385 423.577C494.124 423.685 493.844 423.741 493.562 423.741ZM495.414 437.302H491.706V425.372H495.414V437.302ZM511.148 416.002H489.845C489.361 415.996 488.895 416.183 488.549 416.521C488.204 416.859 488.006 417.32 488 417.804V439.196C488.006 439.68 488.203 440.141 488.549 440.48C488.895 440.818 489.361 441.005 489.845 441H511.148C511.633 441.006 512.1 440.819 512.447 440.481C512.794 440.143 512.993 439.681 513 439.196V417.802C512.993 417.318 512.794 416.856 512.447 416.518C512.1 416.18 511.632 415.994 511.148 416" fill="#959595"/>
</svg>
