<svg width="37" height="37" viewBox="0 0 37 37" fill="none" xmlns="http://www.w3.org/2000/svg">
<path d="M4.46249 23.1383L22.404 5.20123L30.796 13.5954L12.8539 31.5324L4.46249 23.1383Z" fill="#FFCE31"/>
<path d="M34.4828 2.58767L33.414 1.51885C31.3889 -0.506283 28.1262 -0.506283 26.0448 1.51885L22.3883 5.17534L30.8263 13.6134L34.4828 9.9569C36.508 7.93177 36.508 4.6128 34.4828 2.58767Z" fill="#ED4C5C"/>
<path d="M20.128 7.48737L22.4344 5.17984L30.8275 13.5729L28.5211 15.8798L20.128 7.48737Z" fill="#93A2AA"/>
<path d="M21.0033 8.36211L23.3097 6.05515L29.9133 12.6582L27.6058 14.9646L21.0033 8.36211Z" fill="#C7D3D8"/>
<path d="M4.44337 23.1202L0.78688 32.6834L3.3183 35.2148L12.8814 31.5583L4.44337 23.1202Z" fill="#FED0AC"/>
<path d="M0.168094 34.371C-0.338189 35.7211 0.336855 36.3399 1.68694 35.8336L6.29974 34.0897L1.96821 29.7582L0.168094 34.371Z" fill="#333333"/>
<path d="M4.43774 23.1624L20.11 7.49017L22.8946 10.2747L7.22229 25.947L4.43774 23.1624Z" fill="#FFDF85"/>
<path d="M10.071 28.7692L25.7433 13.097L28.5278 15.8815L12.8556 31.5538L10.071 28.7692Z" fill="#FF8736"/>
</svg>
